<svg width="64" height="32" viewBox="0 0 64 32" fill="none" xmlns="http://www.w3.org/2000/svg">
<path d="M39.3413 31.632C37.4853 31.632 35.8213 31.456 34.3493 31.104C32.9093 30.784 31.6293 30.24 30.5093 29.472L30.8453 23.424H31.3253L33.5333 27.36C34.1733 28.512 34.9573 29.36 35.8853 29.904C36.8133 30.416 37.8373 30.672 38.9573 30.672C42.6373 30.672 44.4773 27.872 44.4773 22.272C44.4773 19.744 43.9813 17.824 42.9893 16.512C42.0293 15.2 40.5893 14.544 38.6693 14.544C37.7733 14.544 36.8773 14.672 35.9813 14.928C35.1173 15.152 34.3173 15.456 33.5813 15.84L32.7173 15.312L33.7733 0.480011H50.5733V5.95201H34.7333L34.0613 14.256C34.7973 13.712 35.7893 13.2 37.0373 12.72C38.2853 12.24 39.5973 12 40.9733 12C43.0533 12 44.8933 12.368 46.4933 13.104C48.1253 13.84 49.3893 14.928 50.2853 16.368C51.2133 17.776 51.6773 19.52 51.6773 21.6C51.6773 23.744 51.1333 25.568 50.0453 27.072C48.9893 28.576 47.5333 29.712 45.6773 30.48C43.8213 31.248 41.7093 31.632 39.3413 31.632Z" fill="#D8B2C3"/>
<path d="M12.192 30.912V30.432L14.064 29.856C15.28 29.44 15.888 28.624 15.888 27.408V4.176L12 4.704V4.08C13.888 3.696 15.696 3.152 17.424 2.448C19.184 1.744 20.832 0.928001 22.368 0L22.992 0.431999L22.8 7.296V27.408C22.8 28.656 23.408 29.456 24.624 29.808L26.592 30.432V30.912H12.192Z" fill="#D8B2C3"/>
<path d="M56.877 20.576C56.5143 20.576 56.1943 20.48 55.917 20.288C55.6503 20.096 55.4423 19.824 55.293 19.472C55.1437 19.12 55.069 18.704 55.069 18.224C55.069 17.7333 55.1437 17.2053 55.293 16.64C55.4423 16.0747 55.6663 15.52 55.965 14.976C56.2637 14.432 56.6263 13.936 57.053 13.488C57.4903 13.04 57.9863 12.6827 58.541 12.416C59.0957 12.1387 59.7143 12 60.397 12C60.6957 12 61.0157 12.0427 61.357 12.128C61.6983 12.2027 62.029 12.3147 62.349 12.464L62.365 12.4C62.4183 12.2507 62.4983 12.16 62.605 12.128C62.7117 12.0853 62.8557 12.064 63.037 12.064C63.3677 12.064 63.5757 12.1173 63.661 12.224C63.757 12.32 63.7677 12.4747 63.693 12.688L61.693 18.656C61.629 18.848 61.5917 18.992 61.581 19.088C61.581 19.184 61.6023 19.248 61.645 19.28C61.6877 19.312 61.7357 19.328 61.789 19.328C61.8957 19.328 62.0023 19.296 62.109 19.232C62.2263 19.1573 62.349 19.056 62.477 18.928C62.6157 18.7893 62.7597 18.6293 62.909 18.448C62.9943 18.3413 63.0797 18.2827 63.165 18.272C63.2503 18.2507 63.3517 18.2827 63.469 18.368C63.6397 18.4747 63.741 18.5813 63.773 18.688C63.8157 18.7947 63.8103 18.9013 63.757 19.008C63.661 19.168 63.5063 19.3707 63.293 19.616C63.0797 19.8613 62.8183 20.08 62.509 20.272C62.2103 20.4533 61.8637 20.544 61.469 20.544C61.0743 20.544 60.781 20.4587 60.589 20.288C60.4077 20.1067 60.301 19.8827 60.269 19.616C60.237 19.3493 60.2477 19.0667 60.301 18.768C60.365 18.4693 60.4397 18.192 60.525 17.936C60.5463 17.9147 60.557 17.8933 60.557 17.872C60.5677 17.84 60.5783 17.808 60.589 17.776C60.141 18.4053 59.6983 18.928 59.261 19.344C58.8343 19.76 58.4183 20.0693 58.013 20.272C57.6183 20.4747 57.2397 20.576 56.877 20.576ZM56.525 17.968C56.525 18.2347 56.557 18.4693 56.621 18.672C56.685 18.8747 56.7757 19.0293 56.893 19.136C57.021 19.2427 57.165 19.296 57.325 19.296C57.6983 19.296 58.125 19.0987 58.605 18.704C59.085 18.2987 59.5917 17.712 60.125 16.944C60.669 16.176 61.2237 15.2373 61.789 14.128L61.965 13.6C61.6237 13.4613 61.2983 13.3707 60.989 13.328C60.6903 13.2853 60.4183 13.264 60.173 13.264C59.7143 13.264 59.293 13.3707 58.909 13.584C58.525 13.7973 58.1837 14.08 57.885 14.432C57.597 14.7733 57.3517 15.1573 57.149 15.584C56.9463 16 56.7917 16.416 56.685 16.832C56.5783 17.248 56.525 17.6267 56.525 17.968Z" fill="#F4F4F4"/>
<path d="M51.629 20.576C51.4797 20.576 51.3677 20.512 51.293 20.384C51.2183 20.2667 51.1917 20.1333 51.213 19.984C51.2237 19.824 51.2877 19.6853 51.405 19.568C51.5223 19.44 51.693 19.376 51.917 19.376C52.1943 19.376 52.4877 19.2747 52.797 19.072C53.1063 18.8693 53.4263 18.5867 53.757 18.224C54.077 17.8613 54.4077 17.4347 54.749 16.944C55.0903 16.4533 55.437 15.92 55.789 15.344C55.8743 15.2053 55.9917 15.1467 56.141 15.168C56.2903 15.1893 56.413 15.2587 56.509 15.376C56.605 15.4827 56.6103 15.6053 56.525 15.744C56.0663 16.544 55.629 17.248 55.213 17.856C54.8077 18.464 54.413 18.9707 54.029 19.376C53.6343 19.7707 53.245 20.0693 52.861 20.272C52.4663 20.4747 52.0557 20.576 51.629 20.576Z" fill="#F4F4F4"/>
<path d="M51.6306 20.576C51.1613 20.576 50.8093 20.4853 50.5746 20.304C50.3506 20.1333 50.212 19.9147 50.1586 19.648C50.1053 19.3707 50.1053 19.0827 50.1586 18.784C50.212 18.4747 50.2813 18.192 50.3666 17.936L51.4546 14.8C51.5506 14.5227 51.6093 14.272 51.6306 14.048C51.6626 13.8133 51.6253 13.6267 51.5186 13.488C51.4226 13.3493 51.2253 13.28 50.9266 13.28C50.5746 13.28 50.18 13.4347 49.7426 13.744C49.316 14.0533 48.8733 14.4853 48.4146 15.04C47.9666 15.5947 47.5186 16.256 47.0706 17.024C46.6226 17.7813 46.2066 18.6187 45.8226 19.536L45.6306 20.128C45.588 20.2667 45.508 20.368 45.3906 20.432C45.284 20.5067 45.108 20.544 44.8626 20.544C44.692 20.544 44.532 20.5067 44.3826 20.432C44.244 20.3573 44.2066 20.2187 44.2706 20.016L46.3506 13.584C46.3826 13.4773 46.3773 13.3867 46.3346 13.312C46.3026 13.2373 46.2226 13.2 46.0946 13.2C45.9666 13.2 45.876 13.1413 45.8226 13.024C45.78 12.896 45.7746 12.7573 45.8066 12.608C45.8386 12.448 45.9133 12.3093 46.0306 12.192C46.148 12.064 46.3026 12 46.4946 12C46.8893 12 47.1773 12.0747 47.3586 12.224C47.5506 12.3627 47.668 12.5493 47.7106 12.784C47.7533 13.008 47.7533 13.248 47.7106 13.504C47.668 13.76 47.6146 13.9947 47.5506 14.208L47.2306 15.168C47.5613 14.656 47.8973 14.208 48.2386 13.824C48.5906 13.4293 48.9426 13.0987 49.2946 12.832C49.6466 12.5547 50.004 12.3467 50.3666 12.208C50.7293 12.0693 51.092 12 51.4546 12C51.9453 12 52.324 12.1227 52.5906 12.368C52.8573 12.6027 53.0066 12.9547 53.0386 13.424C53.0706 13.8933 52.9693 14.4747 52.7346 15.168L51.7906 17.92C51.5986 18.4747 51.508 18.8587 51.5186 19.072C51.54 19.2747 51.6786 19.376 51.9346 19.376C52.084 19.376 52.1906 19.44 52.2546 19.568C52.3293 19.6853 52.356 19.824 52.3346 19.984C52.324 20.1333 52.26 20.2667 52.1426 20.384C52.0253 20.512 51.8546 20.576 51.6306 20.576Z" fill="#F4F4F4"/>
<path d="M40.9266 20.576C40.756 20.576 40.6493 20.512 40.6066 20.384C40.5533 20.2667 40.5533 20.1333 40.6066 19.984C40.6493 19.824 40.724 19.6853 40.8306 19.568C40.9373 19.44 41.0546 19.376 41.1826 19.376C41.3746 19.376 41.5826 19.3013 41.8066 19.152C42.02 19.0027 42.244 18.784 42.4786 18.496C42.7026 18.208 42.9426 17.8613 43.1986 17.456C43.444 17.04 43.7 16.5707 43.9666 16.048C44.4466 15.1307 44.8733 14.4 45.2466 13.856C45.6306 13.312 45.9826 12.9067 46.3026 12.64C46.6226 12.3733 46.9266 12.2027 47.2146 12.128C47.5133 12.0427 47.812 12 48.1106 12C48.2173 12 48.2866 12.064 48.3186 12.192C48.3506 12.3093 48.3453 12.448 48.3026 12.608C48.26 12.7573 48.1853 12.896 48.0786 13.024C47.9826 13.1413 47.8546 13.2 47.6946 13.2C47.5773 13.2 47.4386 13.232 47.2786 13.296C47.1293 13.3493 46.9533 13.4773 46.7506 13.68C46.5586 13.872 46.3293 14.1653 46.0626 14.56C45.8066 14.9547 45.508 15.4827 45.1666 16.144C44.6653 17.1467 44.2066 17.9467 43.7906 18.544C43.3746 19.1307 42.996 19.5733 42.6546 19.872C42.3133 20.16 42.004 20.3467 41.7266 20.432C41.4386 20.528 41.172 20.576 40.9266 20.576Z" fill="#F4F4F4"/>
<path d="M40.9715 20.576C40.5022 20.576 40.1502 20.4907 39.9155 20.32C39.6915 20.1493 39.5528 19.9307 39.4995 19.664C39.4462 19.3867 39.4462 19.0987 39.4995 18.8C39.5528 18.4907 39.6222 18.2027 39.7075 17.936L41.4675 12.576C41.5422 12.3627 41.6275 12.224 41.7235 12.16C41.8302 12.096 41.9848 12.064 42.1875 12.064C42.5182 12.064 42.7262 12.1173 42.8115 12.224C42.9075 12.32 42.9182 12.4747 42.8435 12.688L41.1315 17.92C40.9395 18.4853 40.8488 18.8693 40.8595 19.072C40.8808 19.2747 41.0142 19.376 41.2595 19.376C41.4088 19.376 41.5208 19.44 41.5955 19.568C41.6702 19.6853 41.6968 19.824 41.6755 19.984C41.6648 20.1333 41.6008 20.2667 41.4835 20.384C41.3662 20.512 41.1955 20.576 40.9715 20.576ZM43.1795 9.59998C42.9662 9.59998 42.7848 9.53065 42.6355 9.39198C42.4862 9.25332 42.4115 9.05065 42.4115 8.78398C42.4115 8.49598 42.5022 8.22398 42.6835 7.96798C42.8755 7.71198 43.1688 7.58398 43.5635 7.58398C43.7875 7.58398 43.9742 7.65332 44.1235 7.79198C44.2728 7.91998 44.3475 8.12265 44.3475 8.39998C44.3475 8.68798 44.2515 8.95998 44.0595 9.21598C43.8782 9.47198 43.5848 9.59998 43.1795 9.59998Z" fill="#F4F4F4"/>
<path d="M36.4282 20.32C36.1402 20.32 35.8736 20.2293 35.6282 20.048C35.3722 19.8666 35.1376 19.6 34.9242 19.248C34.7109 18.896 34.5242 18.4533 34.3642 17.92C34.2042 17.3866 34.0762 16.768 33.9802 16.064C33.9589 15.936 33.9909 15.84 34.0762 15.776C34.1509 15.7013 34.2416 15.6746 34.3482 15.696C34.4442 15.7066 34.5082 15.7866 34.5402 15.936C34.6682 16.544 34.8336 17.088 35.0362 17.568C35.2282 18.048 35.4522 18.4266 35.7082 18.704C35.9536 18.9813 36.2096 19.12 36.4762 19.12C36.7429 19.12 37.0309 19.0027 37.3402 18.768C37.6496 18.5333 37.9962 18.1546 38.3802 17.632C38.7749 17.1093 39.2282 16.4213 39.7402 15.568C40.2522 14.7146 40.8442 13.6746 41.5162 12.448C41.5696 12.352 41.6442 12.304 41.7402 12.304C41.8469 12.2933 41.9429 12.32 42.0282 12.384C42.1242 12.4373 42.1882 12.5173 42.2202 12.624C42.2629 12.7306 42.2522 12.848 42.1882 12.976C41.4842 14.352 40.8496 15.5093 40.2842 16.448C39.7296 17.3866 39.2229 18.144 38.7642 18.72C38.3056 19.2853 37.8896 19.696 37.5162 19.952C37.1322 20.1973 36.7696 20.32 36.4282 20.32Z" fill="#F4F4F4"/>
<path d="M31.7319 28.576C31.4439 28.576 31.1772 28.5067 30.9319 28.368C30.6865 28.24 30.4945 28.0213 30.3559 27.712C30.2172 27.4027 30.1639 26.9867 30.1959 26.464C30.2172 25.9413 30.3612 25.2853 30.6279 24.496L36.1479 7.568C36.5425 6.32 36.9799 5.41333 37.4599 4.848C37.9505 4.28267 38.5372 4 39.2199 4C39.5612 4 39.8545 4.09067 40.0999 4.272C40.3559 4.45333 40.5532 4.704 40.6919 5.024C40.8412 5.344 40.9159 5.72267 40.9159 6.16C40.9159 6.36267 40.8465 6.512 40.7079 6.608C40.5799 6.704 40.4252 6.752 40.2439 6.752C40.0625 6.752 39.9025 6.704 39.7639 6.608C39.6359 6.512 39.5719 6.36267 39.5719 6.16C39.5719 5.97867 39.5559 5.824 39.5239 5.696C39.4919 5.568 39.4385 5.46667 39.3639 5.392C39.2892 5.31733 39.1772 5.28 39.0279 5.28C38.8572 5.28 38.6919 5.35467 38.5319 5.504C38.3825 5.64267 38.2172 5.904 38.0359 6.288C37.8652 6.66133 37.6625 7.19467 37.4279 7.888L34.6759 16.432C34.8145 16.8907 34.9212 17.3867 34.9959 17.92C35.0812 18.4533 35.1399 19.008 35.1719 19.584C35.2039 20.1493 35.2092 20.72 35.1879 21.296C35.1665 21.8827 35.1239 22.4587 35.0599 23.024C35.0065 23.6 34.9212 24.144 34.8039 24.656C34.6972 25.168 34.5692 25.648 34.4199 26.096C34.2599 26.5653 34.0572 26.9867 33.8119 27.36C33.5665 27.744 33.2732 28.0427 32.9319 28.256C32.6012 28.4693 32.2012 28.576 31.7319 28.576ZM31.8919 27.296C31.9985 27.296 32.0999 27.264 32.1959 27.2C32.2919 27.1467 32.3825 27.0613 32.4679 26.944C32.5639 26.8373 32.6545 26.704 32.7399 26.544C32.8252 26.384 32.9105 26.2027 32.9959 26C33.1239 25.6693 33.2412 25.312 33.3479 24.928C33.4545 24.5547 33.5505 24.16 33.6359 23.744C33.7212 23.328 33.7905 22.9067 33.8439 22.48C33.9079 22.0533 33.9505 21.6267 33.9719 21.2C33.9932 20.7733 33.9985 20.3573 33.9879 19.952C33.9879 19.536 33.9612 19.152 33.9079 18.8L31.9239 24.976C31.6572 25.808 31.5239 26.4 31.5239 26.752C31.5345 27.1147 31.6572 27.296 31.8919 27.296Z" fill="#F4F4F4"/>
<path d="M28.6759 20.576C28.4732 20.576 28.3399 20.512 28.2759 20.384C28.2119 20.2667 28.2012 20.1333 28.2439 19.984C28.2759 19.824 28.3612 19.6853 28.4999 19.568C28.6279 19.44 28.7932 19.376 28.9959 19.376C29.2945 19.376 29.6732 19.248 30.1319 18.992C30.5905 18.736 31.0972 18.384 31.6519 17.936C32.2065 17.4773 32.7825 16.9493 33.3799 16.352C33.9879 15.7547 34.5852 15.1093 35.1719 14.416C35.7692 13.712 36.3292 12.992 36.8519 12.256C37.3852 11.52 37.8545 10.7893 38.2599 10.064C38.6652 9.33867 38.9852 8.64534 39.2199 7.984C39.4545 7.312 39.5719 6.704 39.5719 6.16C39.5719 5.95734 39.6359 5.808 39.7639 5.712C39.9025 5.60534 40.0625 5.552 40.2439 5.552C40.4252 5.552 40.5799 5.60534 40.7079 5.712C40.8465 5.808 40.9159 5.95734 40.9159 6.16C40.9159 6.672 40.8092 7.24267 40.5959 7.872C40.3932 8.49067 40.1052 9.14667 39.7319 9.84C39.3692 10.5333 38.9425 11.2373 38.4519 11.952C37.9612 12.656 37.4279 13.36 36.8519 14.064C36.2865 14.768 35.6999 15.44 35.0919 16.08C34.4839 16.72 33.8759 17.3173 33.2679 17.872C32.6599 18.416 32.0732 18.8907 31.5079 19.296C30.9425 19.7013 30.4199 20.016 29.9399 20.24C29.4599 20.464 29.0385 20.576 28.6759 20.576Z" fill="#F4F4F4"/>
<path d="M28.667 20.576C28.0697 20.576 27.595 20.3947 27.243 20.032C26.9017 19.6587 26.7097 19.1413 26.667 18.48C26.6243 17.808 26.747 17.024 27.035 16.128L29.851 7.568C30.2457 6.32 30.683 5.41333 31.163 4.848C31.6537 4.28267 32.2403 4 32.923 4C33.2643 4 33.5577 4.09067 33.803 4.272C34.059 4.45333 34.2563 4.704 34.395 5.024C34.5443 5.344 34.619 5.72267 34.619 6.16C34.619 6.36267 34.5497 6.512 34.411 6.608C34.283 6.704 34.1283 6.752 33.947 6.752C33.7657 6.752 33.6057 6.704 33.467 6.608C33.339 6.512 33.275 6.36267 33.275 6.16C33.275 5.97867 33.259 5.824 33.227 5.696C33.195 5.568 33.1417 5.46667 33.067 5.392C32.9923 5.31733 32.8803 5.28 32.731 5.28C32.5603 5.28 32.395 5.35467 32.235 5.504C32.0857 5.64267 31.9257 5.904 31.755 6.288C31.5843 6.66133 31.3763 7.19467 31.131 7.888L28.347 16.4C28.1337 17.0507 28.0163 17.6 27.995 18.048C27.9843 18.496 28.0643 18.832 28.235 19.056C28.4057 19.2693 28.651 19.376 28.971 19.376C29.1203 19.376 29.2323 19.44 29.307 19.568C29.3817 19.6853 29.4083 19.824 29.387 19.984C29.3657 20.1333 29.2963 20.2667 29.179 20.384C29.0617 20.512 28.891 20.576 28.667 20.576Z" fill="#F4F4F4"/>
<path d="M21.451 20.576C20.9923 20.576 20.5923 20.4853 20.251 20.304C19.9097 20.1227 19.627 19.872 19.403 19.552C19.1683 19.2213 18.9977 18.848 18.891 18.432C18.7737 18.016 18.715 17.5787 18.715 17.12C18.715 16.5013 18.8003 15.8933 18.971 15.296C19.131 14.688 19.371 14.1387 19.691 13.648C20.011 13.1467 20.411 12.7467 20.891 12.448C21.3603 12.1493 21.899 12 22.507 12C22.603 12 22.667 12.064 22.699 12.192C22.7203 12.32 22.715 12.4693 22.683 12.64C22.6403 12.8107 22.5817 12.96 22.507 13.088C22.4217 13.216 22.331 13.28 22.235 13.28C21.947 13.28 21.691 13.3653 21.467 13.536C21.243 13.7067 21.0457 13.936 20.875 14.224C20.7043 14.5013 20.5657 14.816 20.459 15.168C20.3417 15.5093 20.2563 15.856 20.203 16.208C20.139 16.56 20.107 16.8853 20.107 17.184C20.107 17.4933 20.1443 17.776 20.219 18.032C20.2937 18.288 20.411 18.512 20.571 18.704C20.7203 18.896 20.907 19.0453 21.131 19.152C21.355 19.248 21.6163 19.296 21.915 19.296C22.459 19.296 23.019 19.184 23.595 18.96C24.1603 18.736 24.731 18.4267 25.307 18.032C25.883 17.6373 26.4537 17.1787 27.019 16.656C27.5843 16.1227 28.1283 15.552 28.651 14.944C29.1737 14.3253 29.6643 13.6853 30.123 13.024C30.5923 12.3627 31.019 11.7067 31.403 11.056C31.787 10.4053 32.1177 9.776 32.395 9.168C32.6723 8.56 32.8857 8 33.035 7.488C33.195 6.96533 33.275 6.51733 33.275 6.144C33.275 6.02667 33.339 5.936 33.467 5.872C33.6057 5.808 33.7657 5.776 33.947 5.776C34.1283 5.776 34.283 5.808 34.411 5.872C34.5497 5.936 34.619 6.02667 34.619 6.144C34.619 6.51733 34.539 6.976 34.379 7.52C34.219 8.05333 33.9897 8.65067 33.691 9.312C33.3923 9.97333 33.035 10.6613 32.619 11.376C32.203 12.0907 31.7337 12.816 31.211 13.552C30.699 14.2773 30.1443 14.9813 29.547 15.664C28.9497 16.3467 28.3257 16.9867 27.675 17.584C27.0243 18.1813 26.3523 18.704 25.659 19.152C24.9763 19.6 24.283 19.952 23.579 20.208C22.8643 20.4533 22.155 20.576 21.451 20.576Z" fill="#F4F4F4"/>
<path d="M15.4296 20.576C15.2803 20.576 15.1683 20.512 15.0936 20.384C15.019 20.2667 14.9923 20.1333 15.0136 19.984C15.0243 19.824 15.0883 19.6853 15.2056 19.568C15.323 19.44 15.4936 19.376 15.7176 19.376C16.059 19.376 16.4856 19.2853 16.9976 19.104C17.499 18.912 18.0323 18.656 18.5976 18.336C19.1736 18.016 19.723 17.6587 20.2456 17.264C20.7256 16.912 21.1576 16.5493 21.5416 16.176C21.9256 15.8027 22.2296 15.4347 22.4536 15.072C22.6883 14.7093 22.8056 14.3733 22.8056 14.064C22.8056 13.8187 22.7523 13.6267 22.6456 13.488C22.539 13.3493 22.379 13.28 22.1656 13.28C22.0163 13.28 21.9043 13.216 21.8296 13.088C21.7656 12.96 21.7443 12.8107 21.7656 12.64C21.787 12.4693 21.8563 12.32 21.9736 12.192C22.1016 12.064 22.2776 12 22.5016 12C22.8216 12 23.115 12.0693 23.3816 12.208C23.6483 12.336 23.8563 12.528 24.0056 12.784C24.1656 13.0293 24.2456 13.328 24.2456 13.68C24.2456 14.16 24.091 14.6667 23.7816 15.2C23.483 15.7227 23.083 16.2453 22.5816 16.768C22.0803 17.28 21.5203 17.76 20.9016 18.208C20.283 18.6667 19.6376 19.0773 18.9656 19.44C18.3043 19.792 17.6696 20.0693 17.0616 20.272C16.443 20.4747 15.899 20.576 15.4296 20.576Z" fill="#F4F4F4"/>
<path d="M9.056 20.608C8.512 20.608 8.032 20.5333 7.616 20.384C7.21067 20.2347 6.86933 20.0373 6.592 19.792C6.31467 19.536 6.10667 19.2587 5.968 18.96C5.904 18.8213 5.88267 18.6987 5.904 18.592C5.92533 18.4747 6.016 18.3627 6.176 18.256C6.35733 18.1493 6.512 18.096 6.64 18.096C6.77867 18.096 6.90133 18.1813 7.008 18.352C7.22133 18.672 7.51467 18.9013 7.888 19.04C8.272 19.1787 8.68267 19.248 9.12 19.248C9.792 19.248 10.448 19.1147 11.088 18.848C11.7387 18.5813 12.352 18.2187 12.928 17.76C13.5147 17.2907 14.048 16.752 14.528 16.144C15.0187 15.5253 15.44 14.864 15.792 14.16C16.1547 13.456 16.432 12.7307 16.624 11.984C16.816 11.2373 16.912 10.5013 16.912 9.776C16.912 9.11466 16.8107 8.51733 16.608 7.984C16.4053 7.45066 16.096 6.99733 15.68 6.624C15.2747 6.24 14.7573 5.94666 14.128 5.744C13.4987 5.53066 12.7573 5.424 11.904 5.424C10.9227 5.424 10.0053 5.52533 9.152 5.728C8.29867 5.93066 7.488 6.24 6.72 6.656C5.96267 7.06133 5.23733 7.57866 4.544 8.208C4.33067 8.4 4.15467 8.496 4.016 8.496C3.87733 8.496 3.728 8.43733 3.568 8.32C3.44 8.21333 3.37067 8.08 3.36 7.92C3.34933 7.76 3.43467 7.57866 3.616 7.376C4.13867 6.832 4.71467 6.35733 5.344 5.952C5.984 5.54666 6.66133 5.20533 7.376 4.928C8.09067 4.64 8.82667 4.42666 9.584 4.288C10.352 4.13866 11.1253 4.064 11.904 4.064C13.024 4.064 13.9893 4.208 14.8 4.496C15.6107 4.77333 16.2773 5.17333 16.8 5.696C17.3333 6.208 17.728 6.816 17.984 7.52C18.24 8.21333 18.368 8.976 18.368 9.808C18.368 10.64 18.2507 11.488 18.016 12.352C17.792 13.2053 17.4667 14.0373 17.04 14.848C16.624 15.648 16.128 16.4 15.552 17.104C14.976 17.7973 14.3413 18.4107 13.648 18.944C12.9547 19.4667 12.2187 19.8773 11.44 20.176C10.672 20.464 9.87733 20.608 9.056 20.608ZM2.624 20.576C2.15467 20.576 1.73867 20.4587 1.376 20.224C1.024 19.9893 0.730667 19.6853 0.496 19.312C0.272 18.928 0.117333 18.528 0.032 18.112C-0.0106667 17.8987 -0.0106667 17.7173 0.032 17.568C0.0746667 17.408 0.213333 17.3013 0.448 17.248C0.672 17.1947 0.842667 17.2107 0.96 17.296C1.07733 17.3707 1.16267 17.4987 1.216 17.68C1.32267 18.0213 1.44 18.3093 1.568 18.544C1.70667 18.768 1.86133 18.9387 2.032 19.056C2.21333 19.1627 2.416 19.216 2.64 19.216C2.992 19.216 3.29067 19.0773 3.536 18.8C3.78133 18.5227 4.02667 18.0107 4.272 17.264L7.488 7.28C7.54133 7.13066 7.632 7.01866 7.76 6.944C7.888 6.86933 8.06933 6.832 8.304 6.832C8.54933 6.832 8.72533 6.86933 8.832 6.944C8.94933 7.01866 8.98133 7.14133 8.928 7.312L5.68 17.376C5.49867 17.9733 5.25867 18.5173 4.96 19.008C4.672 19.488 4.336 19.872 3.952 20.16C3.57867 20.4373 3.136 20.576 2.624 20.576Z" fill="#F4F4F4"/>
</svg>
