<svg width="101" height="50" viewBox="0 0 101 50" fill="none" xmlns="http://www.w3.org/2000/svg">
<path d="M62.1859 50C59.2521 50 56.6219 49.7218 54.2951 49.1654C52.0189 48.6596 49.9957 47.7997 48.2253 46.5857L48.7564 37.0258H49.5151L53.0053 43.2473C54.0169 45.0683 55.2562 46.4087 56.723 47.2686C58.1899 48.0779 59.8085 48.4825 61.5789 48.4825C67.3958 48.4825 70.3042 44.0566 70.3042 35.2049C70.3042 31.2089 69.5202 28.174 67.9522 26.1001C66.4347 24.0263 64.1585 22.9894 61.1236 22.9894C59.7073 22.9894 58.2911 23.1917 56.8748 23.5964C55.5091 23.9504 54.2445 24.431 53.0811 25.0379L51.7154 24.2033L53.3846 0.758728H79.94V9.40819H54.9021L53.8399 22.5341C55.0033 21.6743 56.5713 20.8649 58.544 20.1062C60.5167 19.3475 62.5905 18.9681 64.7655 18.9681C68.0533 18.9681 70.9618 19.5498 73.4909 20.7132C76.0705 21.8766 78.0685 23.5964 79.4848 25.8725C80.9517 28.0981 81.6851 30.8548 81.6851 34.1426C81.6851 37.5316 80.8252 40.4148 79.1054 42.7921C77.4362 45.1694 75.1348 46.9651 72.201 48.1791C69.2673 49.393 65.9289 50 62.1859 50Z" fill="#D8B2C3"/>
<path d="M19.2716 48.8619V48.1032L22.2306 47.1927C24.1528 46.5352 25.1138 45.2453 25.1138 43.3232V6.60091L18.9681 7.43551V6.44917C21.9524 5.84219 24.8103 4.9823 27.5417 3.8695C30.3237 2.7567 32.9287 1.46687 35.3566 0L36.3429 0.682851L36.0394 11.5326V43.3232C36.0394 45.2959 37.0005 46.5604 38.9226 47.1168L42.0334 48.1032V48.8619H19.2716Z" fill="#D8B2C3"/>
<path d="M89.9042 32.524C89.3309 32.524 88.8251 32.3723 88.3868 32.0688C87.9652 31.7653 87.6365 31.3354 87.4004 30.779C87.1644 30.2226 87.0463 29.565 87.0463 28.8063C87.0463 28.0307 87.1644 27.1961 87.4004 26.3025C87.6365 25.4089 87.9905 24.5321 88.4626 23.6722C88.9347 22.8124 89.508 22.0283 90.1824 21.3202C90.8737 20.612 91.6577 20.0472 92.5345 19.6257C93.4112 19.1873 94.3891 18.9681 95.4682 18.9681C95.9403 18.9681 96.4461 19.0356 96.9856 19.1705C97.5252 19.2885 98.0479 19.4655 98.5537 19.7016L98.579 19.6004C98.6633 19.3644 98.7897 19.221 98.9583 19.1705C99.1269 19.103 99.3545 19.0693 99.6412 19.0693C100.164 19.0693 100.493 19.1536 100.628 19.3222C100.779 19.474 100.796 19.7184 100.678 20.0556L97.5167 29.4891C97.4156 29.7926 97.3566 30.0202 97.3397 30.172C97.3397 30.3237 97.3734 30.4249 97.4409 30.4755C97.5083 30.5261 97.5842 30.5513 97.6685 30.5513C97.8371 30.5513 98.0057 30.5008 98.1743 30.3996C98.3598 30.2816 98.5537 30.1214 98.756 29.9191C98.9752 29.6999 99.2028 29.447 99.4389 29.1603C99.5737 28.9917 99.7086 28.899 99.8435 28.8822C99.9784 28.8484 100.139 28.899 100.324 29.0339C100.594 29.2025 100.754 29.3711 100.805 29.5397C100.872 29.7083 100.864 29.8769 100.779 30.0455C100.628 30.2984 100.383 30.6188 100.046 31.0066C99.7086 31.3944 99.2955 31.74 98.8066 32.0435C98.3345 32.3301 97.7865 32.4734 97.1627 32.4734C96.5388 32.4734 96.0752 32.3386 95.7717 32.0688C95.4851 31.7822 95.3164 31.4281 95.2659 31.0066C95.2153 30.5851 95.2321 30.1383 95.3164 29.6662C95.4176 29.1941 95.5356 28.7557 95.6705 28.351C95.7042 28.3173 95.7211 28.2836 95.7211 28.2499C95.738 28.1993 95.7548 28.1487 95.7717 28.0981C95.0635 29.0929 94.3638 29.9191 93.6725 30.5766C92.9981 31.2342 92.3406 31.7232 91.6999 32.0435C91.076 32.3639 90.4775 32.524 89.9042 32.524ZM89.3478 28.4016C89.3478 28.8231 89.3984 29.1941 89.4995 29.5144C89.6007 29.8348 89.744 30.0793 89.9295 30.2479C90.1318 30.4165 90.3594 30.5008 90.6124 30.5008C91.2025 30.5008 91.8769 30.1888 92.6356 29.565C93.3943 28.9243 94.1952 27.997 95.0382 26.783C95.8981 25.569 96.7749 24.0853 97.6685 22.3318L97.9467 21.4972C97.4072 21.278 96.8929 21.1347 96.4039 21.0673C95.9319 20.9998 95.5019 20.9661 95.1141 20.9661C94.3891 20.9661 93.7231 21.1347 93.1161 21.4719C92.5092 21.8091 91.9696 22.256 91.4975 22.8123C91.0423 23.3519 90.6545 23.9589 90.3341 24.6333C90.0138 25.2908 89.7693 25.9484 89.6007 26.606C89.4321 27.2635 89.3478 27.8621 89.3478 28.4016Z" fill="#F4F4F4"/>
<path d="M81.6088 32.524C81.3728 32.524 81.1957 32.4229 81.0777 32.2206C80.9597 32.0351 80.9175 31.8243 80.9512 31.5883C80.9681 31.3354 81.0693 31.1162 81.2547 30.9307C81.4402 30.7284 81.71 30.6272 82.064 30.6272C82.5024 30.6272 82.9661 30.4671 83.455 30.1467C83.944 29.8264 84.4498 29.3795 84.9725 28.8063C85.4783 28.233 86.001 27.5586 86.5405 26.783C87.0801 26.0074 87.628 25.1644 88.1844 24.2539C88.3193 24.0348 88.5048 23.942 88.7408 23.9757C88.9769 24.0095 89.1708 24.1191 89.3225 24.3045C89.4743 24.4731 89.4827 24.667 89.3478 24.8862C88.6228 26.1507 87.9315 27.2635 87.274 28.2246C86.6333 29.1857 86.0094 29.9865 85.4024 30.6272C84.7786 31.2511 84.1632 31.7232 83.5562 32.0435C82.9324 32.3639 82.2832 32.524 81.6088 32.524Z" fill="#F4F4F4"/>
<path d="M81.6114 32.524C80.8695 32.524 80.3131 32.3807 79.9422 32.0941C79.5881 31.8243 79.3689 31.4787 79.2846 31.0572C79.2003 30.6188 79.2003 30.1636 79.2846 29.6915C79.3689 29.2025 79.4785 28.7557 79.6134 28.351L81.3332 23.394C81.4849 22.9557 81.5777 22.5594 81.6114 22.2054C81.662 21.8344 81.6029 21.5394 81.4343 21.3202C81.2826 21.101 80.9707 20.9914 80.4986 20.9914C79.9422 20.9914 79.3183 21.2359 78.6271 21.7248C77.9526 22.2138 77.2529 22.8967 76.5279 23.7734C75.8198 24.6502 75.1116 25.6955 74.4035 26.9095C73.6953 28.1066 73.0378 29.4301 72.4308 30.8801L72.1273 31.8159C72.0599 32.0351 71.9334 32.1953 71.748 32.2964C71.5793 32.4144 71.3011 32.4734 70.9134 32.4734C70.6436 32.4734 70.3907 32.4144 70.1546 32.2964C69.9354 32.1784 69.8764 31.9592 69.9776 31.6389L73.2654 21.4719C73.316 21.3033 73.3076 21.16 73.2401 21.042C73.1895 20.924 73.0631 20.865 72.8607 20.865C72.6584 20.865 72.5151 20.7722 72.4308 20.5868C72.3634 20.3844 72.3549 20.1652 72.4055 19.9292C72.4561 19.6763 72.5741 19.4571 72.7596 19.2716C72.9451 19.0693 73.1895 18.9681 73.493 18.9681C74.1169 18.9681 74.5721 19.0862 74.8587 19.3222C75.1622 19.5414 75.3477 19.8365 75.4151 20.2074C75.4826 20.5615 75.4826 20.9408 75.4151 21.3455C75.3477 21.7501 75.2634 22.1211 75.1622 22.4583L74.6564 23.9757C75.1791 23.1664 75.7102 22.4583 76.2497 21.8513C76.8061 21.2275 77.3625 20.7048 77.9189 20.2833C78.4753 19.8449 79.0401 19.5161 79.6134 19.2969C80.1867 19.0777 80.7599 18.9681 81.3332 18.9681C82.1088 18.9681 82.7073 19.162 83.1288 19.5498C83.5503 19.9208 83.7864 20.4772 83.837 21.219C83.8876 21.9609 83.7274 22.8798 83.3564 23.9757L81.8643 28.3258C81.5608 29.2025 81.4175 29.8095 81.4343 30.1467C81.4681 30.467 81.6873 30.6272 82.0919 30.6272C82.328 30.6272 82.4966 30.7284 82.5977 30.9307C82.7157 31.1162 82.7579 31.3354 82.7242 31.5883C82.7073 31.8243 82.6062 32.0351 82.4207 32.2205C82.2352 32.4229 81.9655 32.524 81.6114 32.524Z" fill="#F4F4F4"/>
<path d="M64.6918 32.524C64.422 32.524 64.2534 32.4229 64.186 32.2205C64.1017 32.0351 64.1017 31.8243 64.186 31.5883C64.2534 31.3354 64.3714 31.1162 64.54 30.9307C64.7087 30.7284 64.8941 30.6272 65.0964 30.6272C65.3999 30.6272 65.7287 30.5092 66.0828 30.2731C66.42 30.0371 66.7741 29.6915 67.145 29.2362C67.4991 28.781 67.8784 28.233 68.2831 27.5923C68.6709 26.9348 69.0755 26.1929 69.4971 25.3667C70.2558 23.9167 70.9302 22.7618 71.5203 21.9019C72.1273 21.042 72.6837 20.4013 73.1895 19.9798C73.6953 19.5583 74.1759 19.2885 74.6311 19.1705C75.1032 19.0356 75.5753 18.9681 76.0474 18.9681C76.216 18.9681 76.3256 19.0693 76.3762 19.2716C76.4267 19.4571 76.4183 19.6763 76.3509 19.9292C76.2834 20.1652 76.1654 20.3844 75.9968 20.5868C75.8451 20.7722 75.6427 20.865 75.3898 20.865C75.2043 20.865 74.9852 20.9155 74.7323 21.0167C74.4962 21.101 74.218 21.3033 73.8977 21.6237C73.5942 21.9272 73.2317 22.3908 72.8101 23.0147C72.4055 23.6385 71.9334 24.4731 71.3939 25.5185C70.6014 27.1034 69.8764 28.3679 69.2189 29.3121C68.5613 30.2394 67.9627 30.9391 67.4232 31.4112C66.8837 31.8665 66.3947 32.1615 65.9563 32.2964C65.5011 32.4482 65.0796 32.524 64.6918 32.524Z" fill="#F4F4F4"/>
<path d="M64.7627 32.524C64.0209 32.524 63.4645 32.3891 63.0935 32.1194C62.7395 31.8496 62.5203 31.504 62.436 31.0824C62.3517 30.6441 62.3517 30.1888 62.436 29.7167C62.5203 29.2278 62.6299 28.7725 62.7648 28.351L65.5468 19.8786C65.6648 19.5414 65.7997 19.3222 65.9514 19.221C66.12 19.1199 66.3645 19.0693 66.6848 19.0693C67.2075 19.0693 67.5363 19.1536 67.6712 19.3222C67.8229 19.4739 67.8398 19.7184 67.7218 20.0556L65.0156 28.3257C64.7122 29.2193 64.5688 29.8263 64.5857 30.1467C64.6194 30.467 64.8302 30.6272 65.218 30.6272C65.454 30.6272 65.6311 30.7284 65.7491 30.9307C65.8671 31.1162 65.9093 31.3353 65.8755 31.5883C65.8587 31.8243 65.7575 32.0351 65.572 32.2205C65.3866 32.4229 65.1168 32.524 64.7627 32.524ZM68.2529 15.1745C67.9157 15.1745 67.629 15.0649 67.393 14.8457C67.1569 14.6265 67.0389 14.3062 67.0389 13.8847C67.0389 13.4294 67.1822 12.9995 67.4689 12.5948C67.7723 12.1902 68.236 11.9879 68.8599 11.9879C69.2139 11.9879 69.509 12.0974 69.745 12.3166C69.9811 12.519 70.0991 12.8393 70.0991 13.2777C70.0991 13.7329 69.9474 14.1629 69.6439 14.5675C69.3572 14.9722 68.8936 15.1745 68.2529 15.1745Z" fill="#F4F4F4"/>
<path d="M57.5813 32.1193C57.1261 32.1193 56.7046 31.976 56.3168 31.6894C55.9121 31.4028 55.5412 30.9812 55.204 30.4248C54.8668 29.8684 54.5717 29.1687 54.3188 28.3257C54.0659 27.4827 53.8636 26.5048 53.7118 25.392C53.6781 25.1896 53.7287 25.0379 53.8636 24.9367C53.9816 24.8187 54.1249 24.7766 54.2935 24.8103C54.4452 24.8271 54.5464 24.9536 54.597 25.1896C54.7993 26.1507 55.0607 27.0106 55.381 27.7693C55.6845 28.528 56.0386 29.1266 56.4432 29.565C56.831 30.0033 57.2357 30.2225 57.6572 30.2225C58.0787 30.2225 58.5339 30.0371 59.0229 29.6661C59.5118 29.2952 60.0598 28.6966 60.6668 27.8705C61.2906 27.0443 62.0072 25.9568 62.8165 24.608C63.6258 23.2591 64.5616 21.6152 65.6238 19.6762C65.7081 19.5245 65.8261 19.4486 65.9779 19.4486C66.1465 19.4318 66.2982 19.4739 66.4331 19.5751C66.5849 19.6594 66.686 19.7858 66.7366 19.9544C66.804 20.123 66.7872 20.3085 66.686 20.5108C65.5732 22.6858 64.57 24.5152 63.6764 25.9989C62.7997 27.4827 61.9988 28.6798 61.2738 29.5902C60.5488 30.4839 59.8912 31.133 59.3011 31.5376C58.6941 31.9254 58.1209 32.1193 57.5813 32.1193Z" fill="#F4F4F4"/>
<path d="M50.1579 45.1694C49.7026 45.1694 49.2811 45.0598 48.8933 44.8406C48.5055 44.6383 48.202 44.2927 47.9829 43.8037C47.7637 43.3148 47.6794 42.6572 47.7299 41.831C47.7637 41.0049 47.9913 39.9679 48.4128 38.7203L57.1381 11.9626C57.762 9.98987 58.4533 8.55672 59.212 7.66311C59.9876 6.7695 60.9149 6.32269 61.994 6.32269C62.5335 6.32269 62.9972 6.46601 63.385 6.75264C63.7896 7.03927 64.1016 7.43549 64.3207 7.94131C64.5568 8.44712 64.6748 9.04567 64.6748 9.73696C64.6748 10.0573 64.5652 10.2934 64.346 10.4451C64.1437 10.5968 63.8992 10.6727 63.6126 10.6727C63.326 10.6727 63.0731 10.5968 62.8539 10.4451C62.6515 10.2934 62.5504 10.0573 62.5504 9.73696C62.5504 9.45033 62.5251 9.20585 62.4745 9.00352C62.4239 8.8012 62.3396 8.64102 62.2216 8.523C62.1036 8.40497 61.9265 8.34596 61.6905 8.34596C61.4207 8.34596 61.1594 8.46398 60.9065 8.70003C60.6704 8.91922 60.4091 9.3323 60.1225 9.93928C59.8527 10.5294 59.5323 11.3724 59.1614 12.4684L54.8114 25.9737C55.0306 26.6987 55.1992 27.4827 55.3172 28.3257C55.4521 29.1688 55.5448 30.0455 55.5954 30.956C55.646 31.8496 55.6544 32.7516 55.6207 33.6621C55.587 34.5894 55.5195 35.4999 55.4184 36.3935C55.3341 37.304 55.1992 38.1639 55.0137 38.9732C54.8451 39.7825 54.6428 40.5412 54.4067 41.2493C54.1538 41.9912 53.8335 42.6572 53.4457 43.2473C53.0579 43.8543 52.5942 44.3264 52.0547 44.6636C51.532 45.0008 50.8997 45.1694 50.1579 45.1694ZM50.4108 43.1462C50.5794 43.1462 50.7396 43.0956 50.8913 42.9944C51.043 42.9101 51.1864 42.7752 51.3212 42.5898C51.473 42.4212 51.6163 42.2104 51.7512 41.9575C51.8861 41.7046 52.021 41.418 52.1558 41.0976C52.3582 40.5749 52.5436 40.0101 52.7122 39.4031C52.8808 38.813 53.0326 38.1892 53.1675 37.5316C53.3024 36.874 53.412 36.208 53.4963 35.5336C53.5974 34.8592 53.6649 34.1848 53.6986 33.5103C53.7323 32.8359 53.7407 32.1784 53.7239 31.5377C53.7239 30.8801 53.6817 30.2731 53.5974 29.7167L50.4614 39.479C50.0398 40.7941 49.8291 41.7299 49.8291 42.2863C49.8459 42.8595 50.0398 43.1462 50.4108 43.1462Z" fill="#F4F4F4"/>
<path d="M45.3273 32.524C45.007 32.524 44.7962 32.4229 44.695 32.2206C44.5939 32.0351 44.577 31.8243 44.6445 31.5883C44.695 31.3354 44.8299 31.1162 45.0491 30.9307C45.2514 30.7284 45.5128 30.6272 45.8331 30.6272C46.3052 30.6272 46.9038 30.4249 47.6288 30.0202C48.3538 29.6156 49.1547 29.0592 50.0314 28.3511C50.9082 27.626 51.8186 26.7915 52.7628 25.8473C53.7239 24.9031 54.6681 23.883 55.5954 22.7871C56.5396 21.6743 57.4248 20.5362 58.2509 19.3728C59.094 18.2094 59.8358 17.0545 60.4765 15.908C61.1172 14.7614 61.6231 13.6655 61.994 12.6201C62.3649 11.5579 62.5504 10.5969 62.5504 9.73699C62.5504 9.41664 62.6515 9.18059 62.8539 9.02885C63.0731 8.86024 63.326 8.77594 63.6126 8.77594C63.8992 8.77594 64.1437 8.86024 64.346 9.02885C64.5652 9.18059 64.6748 9.41664 64.6748 9.73699C64.6748 10.5463 64.5062 11.4483 64.169 12.4431C63.8486 13.421 63.3934 14.4579 62.8033 15.5539C62.23 16.6498 61.5556 17.7626 60.78 18.8923C60.0044 20.0051 59.1614 21.1179 58.2509 22.2307C57.3573 23.3435 56.43 24.4057 55.4689 25.4173C54.5079 26.429 53.5468 27.3731 52.5858 28.2499C51.6247 29.1098 50.6974 29.8601 49.8038 30.5008C48.9102 31.1415 48.084 31.6389 47.3253 31.9929C46.5666 32.347 45.9006 32.524 45.3273 32.524Z" fill="#F4F4F4"/>
<path d="M45.3133 32.524C44.3691 32.524 43.6188 32.2374 43.0624 31.6641C42.5229 31.074 42.2194 30.2563 42.1519 29.2109C42.0845 28.1487 42.2784 26.9094 42.7336 25.4932L47.1848 11.9625C47.8086 9.98986 48.4999 8.55672 49.2586 7.66311C50.0342 6.7695 50.9616 6.32269 52.0406 6.32269C52.5802 6.32269 53.0438 6.46601 53.4316 6.75264C53.8363 7.03927 54.1482 7.43549 54.3674 7.94131C54.6034 8.44712 54.7215 9.04567 54.7215 9.73696C54.7215 10.0573 54.6119 10.2934 54.3927 10.4451C54.1904 10.5968 53.9459 10.6727 53.6593 10.6727C53.3726 10.6727 53.1197 10.5968 52.9005 10.4451C52.6982 10.2934 52.597 10.0573 52.597 9.73696C52.597 9.45033 52.5718 9.20585 52.5212 9.00352C52.4706 8.80119 52.3863 8.64102 52.2683 8.523C52.1502 8.40497 51.9732 8.34596 51.7372 8.34596C51.4674 8.34596 51.206 8.46398 50.9531 8.70003C50.7171 8.91922 50.4642 9.3323 50.1944 9.93928C49.9246 10.5294 49.5959 11.3724 49.2081 12.4684L44.8075 25.9231C44.4702 26.9516 44.2848 27.8199 44.2511 28.5281C44.2342 29.2362 44.3607 29.7673 44.6304 30.1214C44.9002 30.4586 45.288 30.6272 45.7938 30.6272C46.0299 30.6272 46.2069 30.7284 46.3249 30.9307C46.4429 31.1161 46.4851 31.3353 46.4514 31.5882C46.4176 31.8243 46.308 32.035 46.1226 32.2205C45.9371 32.4228 45.6673 32.524 45.3133 32.524Z" fill="#F4F4F4"/>
<path d="M33.9071 32.524C33.1821 32.524 32.5498 32.3807 32.0103 32.0941C31.4708 31.8075 31.024 31.4112 30.6699 30.9054C30.2989 30.3827 30.0292 29.7926 29.8606 29.1351C29.6751 28.4775 29.5824 27.7862 29.5824 27.0612C29.5824 26.0833 29.7173 25.1223 29.987 24.1781C30.2399 23.217 30.6193 22.3487 31.1251 21.5731C31.6309 20.7807 32.2632 20.1484 33.0219 19.6763C33.7638 19.2042 34.6153 18.9681 35.5763 18.9681C35.728 18.9681 35.8292 19.0693 35.8798 19.2716C35.9135 19.474 35.9051 19.71 35.8545 19.9798C35.7871 20.2495 35.6943 20.4856 35.5763 20.6879C35.4414 20.8902 35.2981 20.9914 35.1464 20.9914C34.6911 20.9914 34.2865 21.1263 33.9324 21.3961C33.5783 21.6658 33.2664 22.0283 32.9966 22.4836C32.7269 22.9219 32.5077 23.4193 32.3391 23.9757C32.1536 24.5153 32.0187 25.0632 31.9344 25.6196C31.8333 26.176 31.7827 26.6903 31.7827 27.1624C31.7827 27.6513 31.8417 28.0981 31.9597 28.5028C32.0777 28.9074 32.2632 29.2615 32.5161 29.565C32.7522 29.8685 33.0472 30.1045 33.4013 30.2731C33.7554 30.4249 34.1684 30.5008 34.6405 30.5008C35.5004 30.5008 36.3856 30.3237 37.2961 29.9697C38.1897 29.6156 39.0917 29.1266 40.0022 28.5028C40.9127 27.879 41.8147 27.1539 42.7083 26.3278C43.6019 25.4847 44.4618 24.5827 45.288 23.6217C46.1142 22.6437 46.8897 21.6321 47.6147 20.5868C48.3566 19.5414 49.031 18.5045 49.638 17.476C50.245 16.4475 50.7677 15.4527 51.206 14.4917C51.6444 13.5306 51.9816 12.6454 52.2177 11.8361C52.4706 11.01 52.597 10.3018 52.597 9.71169C52.597 9.52623 52.6982 9.38291 52.9005 9.28175C53.1197 9.18059 53.3726 9.13 53.6593 9.13C53.9459 9.13 54.1904 9.18059 54.3927 9.28175C54.6119 9.38291 54.7215 9.52623 54.7215 9.71169C54.7215 10.3018 54.595 11.0268 54.3421 11.8867C54.0892 12.7297 53.7267 13.6739 53.2546 14.7193C52.7825 15.7646 52.2177 16.8521 51.5601 17.9818C50.9026 19.1115 50.1607 20.258 49.3345 21.4214C48.5252 22.5679 47.6485 23.6807 46.7043 24.7597C45.7601 25.8388 44.7737 26.8505 43.7452 27.7946C42.7168 28.7388 41.6545 29.565 40.5586 30.2731C39.4795 30.9813 38.3836 31.5377 37.2708 31.9423C36.1411 32.3301 35.0199 32.524 33.9071 32.524Z" fill="#F4F4F4"/>
<path d="M24.3893 32.524C24.1532 32.524 23.9762 32.4229 23.8582 32.2205C23.7401 32.0351 23.698 31.8243 23.7317 31.5883C23.7486 31.3354 23.8497 31.1162 24.0352 30.9307C24.2207 30.7284 24.4904 30.6272 24.8445 30.6272C25.384 30.6272 26.0585 30.4839 26.8678 30.1973C27.6602 29.8938 28.5032 29.4891 29.3969 28.9833C30.3073 28.4775 31.1756 27.9127 32.0018 27.2888C32.7605 26.7324 33.4434 26.1592 34.0504 25.569C34.6573 24.9789 35.1379 24.3972 35.4919 23.824C35.8629 23.2507 36.0483 22.7196 36.0483 22.2307C36.0483 21.8429 35.964 21.5394 35.7954 21.3202C35.6268 21.101 35.3739 20.9914 35.0367 20.9914C34.8007 20.9914 34.6236 20.8902 34.5056 20.6879C34.4044 20.4856 34.3707 20.2495 34.4044 19.9798C34.4382 19.71 34.5478 19.474 34.7332 19.2716C34.9355 19.0693 35.2137 18.9681 35.5678 18.9681C36.0736 18.9681 36.5373 19.0777 36.9588 19.2969C37.3803 19.4992 37.7091 19.8027 37.9452 20.2074C38.1981 20.5952 38.3245 21.0673 38.3245 21.6237C38.3245 22.3824 38.08 23.1833 37.5911 24.0263C37.119 24.8525 36.4867 25.6786 35.6943 26.5048C34.9018 27.3141 34.0166 28.0728 33.0387 28.781C32.0608 29.506 31.0408 30.1551 29.9785 30.7284C28.9332 31.2848 27.93 31.7232 26.9689 32.0435C25.991 32.3639 25.1311 32.524 24.3893 32.524Z" fill="#F4F4F4"/>
<path d="M14.3146 32.5746C13.4547 32.5746 12.696 32.4566 12.0384 32.2206C11.3977 31.9845 10.8582 31.6726 10.4198 31.2848C9.98145 30.8801 9.65267 30.4418 9.43348 29.9697C9.33232 29.7505 9.2986 29.5566 9.33232 29.388C9.36604 29.2025 9.50936 29.0255 9.76227 28.8569C10.0489 28.6883 10.2934 28.604 10.4957 28.604C10.7149 28.604 10.9088 28.7388 11.0774 29.0086C11.4146 29.5144 11.8783 29.8769 12.4684 30.0961C13.0754 30.3153 13.7245 30.4249 14.4158 30.4249C15.478 30.4249 16.5149 30.2141 17.5266 29.7926C18.555 29.3711 19.5245 28.7979 20.435 28.0729C21.3623 27.331 22.2054 26.4795 22.9641 25.5185C23.7397 24.5406 24.4057 23.4952 24.9621 22.3824C25.5353 21.2696 25.9737 20.1231 26.2772 18.9429C26.5807 17.7626 26.7324 16.5992 26.7324 15.4527C26.7324 14.4074 26.5722 13.4632 26.2519 12.6201C25.9315 11.7771 25.4426 11.0605 24.785 10.4704C24.1443 9.86345 23.3266 9.39978 22.3318 9.07943C21.337 8.74222 20.1652 8.57361 18.8164 8.57361C17.2652 8.57361 15.8152 8.73379 14.4664 9.05414C13.1175 9.37449 11.8361 9.86345 10.6222 10.521C9.42505 11.1617 8.27854 11.9794 7.1826 12.9742C6.84539 13.2777 6.56719 13.4295 6.348 13.4295C6.12881 13.4295 5.89277 13.3367 5.63986 13.1513C5.43753 12.9826 5.32794 12.7719 5.31108 12.519C5.29422 12.2661 5.4291 11.9794 5.71573 11.6591C6.5419 10.7992 7.45237 10.0489 8.44714 9.40821C9.45878 8.76751 10.5294 8.22797 11.6591 7.7896C12.7887 7.33436 13.9521 6.99715 15.1492 6.77796C16.3632 6.54191 17.5856 6.42389 18.8164 6.42389C20.5867 6.42389 22.1126 6.65151 23.394 7.10674C24.6754 7.54512 25.7292 8.17739 26.5554 9.00356C27.3984 9.81286 28.0223 10.7739 28.4269 11.8867C28.8316 12.9827 29.0339 14.1882 29.0339 15.5033C29.0339 16.8184 28.8484 18.1588 28.4775 19.5245C28.1234 20.8734 27.6092 22.1885 26.9347 23.4699C26.2772 24.7345 25.4932 25.9231 24.5827 27.0359C23.6722 28.1319 22.669 29.1013 21.5731 29.9444C20.4772 30.7705 19.3138 31.4197 18.083 31.8918C16.869 32.347 15.6129 32.5746 14.3146 32.5746ZM4.1477 32.524C3.40583 32.524 2.74827 32.3386 2.17501 31.9676C1.61861 31.5967 1.15495 31.1162 0.784016 30.5261C0.429944 29.9191 0.185466 29.2868 0.0505817 28.6293C-0.0168606 28.292 -0.0168606 28.0054 0.0505817 27.7694C0.118024 27.5165 0.337211 27.3479 0.708144 27.2635C1.06222 27.1792 1.33198 27.2045 1.51745 27.3394C1.70292 27.4574 1.8378 27.6598 1.9221 27.9464C2.09071 28.4859 2.27618 28.9412 2.4785 29.3121C2.69769 29.6662 2.94217 29.9359 3.21194 30.1214C3.49857 30.29 3.81892 30.3743 4.17299 30.3743C4.72939 30.3743 5.20148 30.1551 5.58928 29.7168C5.97707 29.2784 6.36486 28.4691 6.75266 27.2888L11.8361 11.5074C11.9204 11.2713 12.0637 11.0943 12.2661 10.9762C12.4684 10.8582 12.755 10.7992 13.1259 10.7992C13.5137 10.7992 13.7919 10.8582 13.9605 10.9762C14.146 11.0943 14.1966 11.2882 14.1123 11.5579L8.97825 27.4659C8.69162 28.4101 8.31226 29.27 7.84016 30.0455C7.38493 30.8043 6.85382 31.4112 6.24684 31.8665C5.65672 32.3049 4.95701 32.524 4.1477 32.524Z" fill="#F4F4F4"/>
</svg>
